<svg height="512pt" viewBox="0 0 512 512" width="512pt" xmlns="http://www.w3.org/2000/svg"><path d="m416.667969 361.492188h-25.167969v-25.167969c0-8.285157-6.714844-15-15-15s-15 6.714843-15 15v25.167969h-25.167969c-8.28125 0-15 6.714843-15 15 0 8.285156 6.71875 15 15 15h25.167969v25.164062c0 8.285156 6.714844 15 15 15s15-6.714844 15-15v-25.164062h25.167969c8.28125 0 15-6.714844 15-15 0-8.285157-6.71875-15-15-15zm0 0"/><path d="m461.191406 270.804688c28.386719-2.230469 50.808594-26.027344 50.808594-54.980469 0-30.417969-24.746094-55.167969-55.167969-55.167969h-17.082031l-52.441406-126.601562c-11.640625-28.101563-43.972656-41.496094-72.078125-29.855469-13.613281 5.640625-24.21875 16.242187-29.855469 29.855469-5.640625 13.613281-5.636719 28.609374.003906 42.222656l34.949219 84.378906h-128.652344l34.949219-84.378906c11.640625-28.105469-1.753906-60.4375-29.855469-72.078125-28.105469-11.640625-60.441406 1.753906-72.078125 29.855469l-52.441406 126.601562h-17.082031c-30.417969 0-55.167969 24.75-55.167969 55.167969 0 25.816406 17.828125 47.539062 41.816406 53.523437l25.308594 189.8125c1.890625 14.195313 9.1875 27.484375 20.535156 37.421875s25.488282 15.410157 39.808594 15.410157h249.03125c74.714844 0 135.5-60.785157 135.5-135.5 0-42.695313-19.855469-80.835938-50.808594-105.6875zm-148.097656-206.007813c-2.574219-6.210937-2.574219-13.050781-.003906-19.261719 2.574218-6.210937 7.410156-11.046875 13.621094-13.617187 12.820312-5.308594 27.574218.800781 32.882812 13.617187l47.683594 115.121094h-54.476563zm-160.6875-19.261719c5.3125-12.816406 20.0625-18.925781 32.882812-13.617187 12.820313 5.308593 18.929688 20.058593 13.617188 32.882812l-39.703125 95.855469h-54.480469zm-122.40625 170.289063c0-13.878907 11.289062-25.167969 25.167969-25.167969h27.019531c.027344 0 .054688.003906.082031.003906.035157 0 .070313-.003906.105469-.003906h86.890625.113281 173.210938.1875 86.847656c.039062 0 .074219.003906.109375.003906.023437 0 .050781-.003906.078125-.003906h27.019531c13.878907 0 25.167969 11.289062 25.167969 25.167969 0 13.875-11.289062 25.167969-25.167969 25.167969h-401.664062c-13.878907 0-25.167969-11.292969-25.167969-25.167969zm97.46875 266.167969c-14.652344 0-28.671875-12.273438-30.605469-26.796876l-24.5625-184.203124h219.273438c-30.820313 24.855468-50.574219 62.910156-50.574219 105.5 0 42.585937 19.753906 80.640624 50.574219 105.5zm249.03125 0c-58.171875 0-105.5-47.328126-105.5-105.5 0-58.175782 47.328125-105.5 105.5-105.5s105.5 47.324218 105.5 105.5c0 58.171874-47.328125 105.5-105.5 105.5zm0 0"/></svg>